
<svg version="1.0" xmlns="http://www.w3.org/2000/svg"
 width="300.000000pt" height="50.000000pt" viewBox="0 0 300.000000 50.000000"
 preserveAspectRatio="xMidYMid meet">

<g transform="translate(0.000000,50.000000) scale(0.100000,-0.100000)"
fill="#000000" stroke="none">
<path d="M338 430 c-24 -27 -29 -29 -47 -18 -18 11 -24 10 -43 -10 -20 -20
-21 -25 -9 -45 13 -22 13 -22 -12 2 -27 25 -81 35 -109 20 -45 -24 -62 -133
-28 -174 36 -43 103 -53 131 -19 17 20 31 6 16 -16 -10 -17 -8 -23 11 -42 19
-20 25 -21 43 -10 18 11 23 9 47 -18 32 -37 69 -40 81 -6 17 43 41 41 91 -9
47 -46 67 -54 88 -33 21 21 13 39 -53 111 -53 58 -65 77 -65 105 0 44 -14 68
-52 88 -85 44 -178 -49 -134 -134 20 -38 44 -52 89 -52 21 0 41 -7 52 -20 16
-18 17 -20 1 -20 -9 0 -21 -11 -26 -25 -11 -30 -40 -33 -47 -6 -7 25 -60 48
-75 33 -9 -9 -16 -8 -29 4 -15 13 -16 20 -6 35 9 14 9 21 0 30 -7 7 -9 18 -4
28 11 20 8 111 -3 129 -12 20 23 55 41 41 19 -16 73 8 73 32 0 14 7 19 25 19
18 0 25 -5 25 -18 0 -25 45 -45 69 -32 24 12 57 -20 39 -38 -8 -8 -9 -18 -1
-35 7 -15 8 -29 1 -41 -5 -10 -7 -28 -4 -42 4 -13 7 -27 7 -31 1 -17 56 -41
105 -48 48 -6 53 -5 73 21 11 14 21 21 21 15 0 -7 16 -19 36 -27 43 -18 95 -5
119 29 12 18 15 18 15 4 0 -9 11 -24 25 -33 23 -15 27 -15 50 0 14 9 25 25 25
35 0 31 29 34 40 5 12 -30 70 -57 105 -48 14 3 34 18 45 31 18 23 20 24 20 6
0 -26 19 -43 50 -43 36 0 50 17 50 62 0 21 5 38 10 38 18 0 50 -39 44 -54 -9
-22 12 -52 46 -66 41 -17 88 2 106 44 7 17 13 25 14 18 0 -7 16 -20 36 -28 29
-12 43 -13 70 -4 37 12 70 52 59 70 -4 6 -8 27 -10 48 -5 49 -33 71 -86 68
-33 -2 -47 -9 -65 -31 -21 -27 -22 -27 -29 -6 -3 12 -16 28 -28 36 -19 12 -28
12 -60 1 -21 -7 -43 -18 -49 -24 -9 -9 -16 -8 -30 5 -10 9 -18 13 -18 9 0 -3
-16 1 -37 9 -32 14 -38 14 -60 0 -12 -9 -23 -23 -24 -33 0 -11 -3 -12 -6 -4
-8 21 -61 43 -88 36 -14 -3 -37 -20 -51 -37 l-27 -32 7 30 c9 40 -10 64 -56
72 -52 8 -88 -16 -88 -60 l-1 -32 -15 28 c-8 15 -18 28 -22 28 -54 10 -87 4
-109 -17 -13 -13 -23 -19 -23 -14 0 6 1 11 2 13 8 11 -28 47 -54 52 -26 6 -35
3 -49 -14 -9 -11 -24 -21 -32 -21 -8 0 -20 -7 -27 -15 -18 -22 -32 2 -17 26
10 15 8 23 -11 41 -19 20 -25 21 -43 10 -18 -11 -23 -9 -47 18 -34 38 -60 38
-94 0z m-122 -91 c22 -18 14 -55 -11 -51 -21 4 -37 21 -29 33 2 4 0 10 -5 13
-5 4 -12 -2 -15 -11 -5 -21 0 -92 8 -100 5 -5 8 0 20 41 3 9 13 12 26 9 28 -8
23 -40 -12 -66 -73 -55 -145 65 -80 136 18 21 71 19 98 -4z m464 -3 c9 -25 9
-131 -1 -140 -3 -4 -27 -3 -54 1 -51 7 -85 31 -85 62 0 28 33 64 61 66 13 1
25 7 25 13 2 21 4 22 24 22 12 0 24 -10 30 -24z m319 11 c13 -16 5 -27 -21
-27 -12 0 -18 -7 -18 -21 0 -16 4 -19 21 -14 17 6 20 3 17 -12 -2 -10 -10 -18
-18 -18 -9 0 -14 -9 -13 -22 1 -11 -5 -27 -13 -34 -14 -11 -19 -10 -33 8 -20
24 -27 104 -11 133 13 24 71 28 89 7z m-554 -22 c17 -16 25 -34 24 -57 l-1
-33 -8 35 c-13 55 -62 84 -100 60 -12 -7 -12 -12 4 -29 24 -26 11 -49 -14 -26
-37 33 -55 -14 -22 -55 9 -12 33 -25 52 -30 33 -7 33 -8 7 -9 -41 -1 -67 16
-83 54 -15 38 -11 59 19 93 29 31 90 30 122 -3z m809 9 c9 -3 14 -9 12 -13 -3
-4 8 -7 22 -6 18 0 27 -5 27 -15 0 -10 -8 -14 -21 -12 -20 3 -22 -2 -20 -45 1
-45 -1 -48 -24 -48 -17 0 -26 7 -31 25 -11 41 -10 95 3 108 14 14 12 14 32 6z
m217 -35 c31 -64 10 -139 -39 -139 -25 0 -52 21 -52 40 0 24 28 26 45 4 11
-16 12 -16 18 0 4 10 1 18 -6 20 -51 14 -71 23 -81 39 -9 15 -6 23 17 43 16
13 32 22 37 19 5 -3 12 -1 15 5 11 18 29 6 46 -31z m-1036 -2 c8 -12 15 -30
15 -42 0 -11 32 -52 76 -96 53 -53 75 -82 71 -93 -12 -30 -39 -16 -114 56 -40
40 -88 77 -106 83 -19 6 -37 21 -45 38 -17 36 -8 46 18 22 19 -17 22 -18 37
-2 16 15 15 18 0 35 -9 10 -15 21 -11 24 10 11 44 -4 59 -25z m409 11 c15 -25
-3 -52 -38 -56 -14 -2 -24 -8 -20 -13 3 -5 21 -7 40 -3 20 4 34 2 34 -4 0 -15
-24 -31 -58 -38 -25 -5 -36 -1 -56 19 -32 32 -33 56 -5 91 17 22 28 26 57 24
20 -2 40 -10 46 -20z m307 4 c44 -37 16 -122 -40 -122 -60 0 -84 81 -35 119
33 26 45 26 75 3z m493 -4 c15 -25 -3 -52 -38 -56 -14 -2 -24 -8 -20 -13 3 -5
21 -7 40 -3 20 4 34 2 34 -4 0 -15 -24 -31 -58 -38 -25 -5 -36 -1 -56 19 -32
32 -33 56 -5 91 17 22 28 26 57 24 20 -2 40 -10 46 -20z"/>
<path d="M597 283 c-11 -10 -8 -41 4 -49 17 -10 32 12 24 35 -6 21 -16 26 -28
14z"/>
<path d="M1405 290 c-4 -6 -2 -17 4 -23 15 -15 25 -2 13 19 -7 12 -11 13 -17
4z"/>
<path d="M490 145 c41 -41 79 -75 84 -75 6 0 -23 34 -64 75 -41 41 -79 75 -84
75 -6 0 23 -34 64 -75z"/>
<path d="M780 285 c-10 -12 -10 -15 3 -15 19 0 31 16 18 24 -5 3 -14 -1 -21
-9z"/>
<path d="M1100 261 c0 -17 4 -33 10 -36 11 -7 25 39 15 54 -12 21 -25 11 -25
-18z"/>
<path d="M1580 285 c-10 -12 -10 -15 3 -15 19 0 31 16 18 24 -5 3 -14 -1 -21
-9z"/>
<path d="M1875 381 c-41 -17 -59 -49 -61 -109 -3 -64 7 -88 41 -104 19 -8 28
-8 40 2 12 10 18 10 30 0 20 -16 65 12 65 40 0 11 6 20 13 20 9 0 12 -9 9 -28
-5 -36 28 -66 73 -66 39 0 75 28 75 57 l0 20 23 -20 c12 -11 30 -23 40 -26 25
-9 73 2 93 22 17 15 19 15 39 -5 31 -30 120 -27 145 5 16 22 16 22 34 2 25
-27 58 -33 99 -16 37 15 47 31 47 72 0 15 3 24 6 20 5 -5 8 -24 13 -79 2 -22
46 -46 77 -43 43 4 61 18 80 64 14 32 14 54 1 117 -8 37 -75 61 -92 34 -3 -5
-12 -7 -20 -4 -19 8 -55 -14 -55 -33 0 -14 -4 -13 -20 5 -39 42 -111 40 -145
-2 l-20 -25 -24 25 c-13 13 -35 24 -50 24 -14 0 -36 3 -48 6 -14 4 -28 -1 -40
-13 -19 -19 -20 -19 -43 -1 -34 27 -76 23 -112 -12 -16 -16 -31 -30 -33 -30
-2 0 -5 10 -7 22 -2 13 -15 28 -29 35 -23 11 -33 10 -72 -7 -25 -11 -48 -26
-50 -33 -4 -8 -6 -6 -6 4 -2 39 -76 77 -116 60z m71 -44 c22 -19 27 -33 28
-70 1 -31 -5 -52 -16 -63 -20 -20 -38 -11 -38 22 0 15 -6 24 -16 24 -11 0 -15
-6 -11 -20 7 -26 -18 -47 -37 -31 -35 29 -25 116 17 146 29 20 41 19 73 -8z
m180 -29 c35 -68 13 -148 -41 -148 -25 0 -60 34 -50 49 7 12 46 15 43 4 -2 -5
2 -9 7 -11 6 -1 11 6 13 16 2 16 -2 19 -21 15 -35 -7 -67 13 -67 42 0 24 36
59 51 49 4 -2 10 0 14 6 12 19 35 10 51 -22z m702 15 c17 -33 11 -110 -10
-132 -31 -34 -98 -21 -98 19 0 28 37 26 45 -1 6 -17 9 -19 16 -8 15 25 10 39
-15 39 -33 0 -58 27 -54 59 4 34 43 38 43 4 0 -28 19 -26 22 2 0 11 1 23 2 28
2 14 41 7 49 -10z m-538 -11 c29 -24 17 -50 -27 -58 -29 -6 -33 -8 -19 -16 10
-6 28 -7 41 -4 36 9 40 -11 6 -29 -41 -21 -58 -19 -86 10 -30 29 -32 64 -5 93
25 27 60 28 90 4z m138 8 c51 0 85 -88 47 -120 -24 -20 -40 3 -36 51 2 31 -1
40 -11 37 -8 -3 -13 -20 -12 -46 1 -77 -54 -61 -63 17 -7 56 2 75 30 67 12 -3
32 -6 45 -6z m206 0 c35 -13 36 -50 2 -50 -16 0 -26 7 -29 21 -8 32 -25 14
-22 -23 4 -47 4 -48 15 -48 6 0 10 7 10 15 0 9 9 15 25 15 31 0 33 -23 3 -44
-32 -23 -65 -20 -93 9 -30 30 -31 54 -4 89 22 28 50 33 93 16z"/>
<path d="M1899 323 c0 -4 -2 -16 -4 -25 -2 -10 3 -18 11 -18 16 0 19 36 4 45
-5 3 -10 3 -11 -2z"/>
<path d="M2064 289 c-3 -6 -1 -16 5 -22 8 -8 11 -5 11 11 0 24 -5 28 -16 11z"/>
<path d="M2240 290 c-8 -5 -11 -12 -7 -16 4 -4 13 -2 19 4 15 15 7 24 -12 12z"/>
</g>
</svg>
